<?xml version="1.0"?>
<svg xmlns="http://www.w3.org/2000/svg" viewBox="0 0 24 24" enable-background="new 0 0 24 24">
    <path style="text-indent:0;text-align:start;line-height:normal;text-transform:none;block-progression:tb;-inkscape-font-specification:Bitstream Vera Sans" d="M 9.21875 3 C 8.0011296 3 7 4.0011296 7 5.21875 L 7 7 L 0.84375 7 C 0.38275 7 -7.4014868e-17 7.38275 0 7.84375 L 0 15.15625 C 0 15.61725 0.38275 16 0.84375 16 L 23.15625 16 C 23.61725 16 24 15.61725 24 15.15625 L 24 7.84375 C 24 7.38275 23.61725 7 23.15625 7 L 17 7 L 17 5.21875 C 17 4.0011296 15.99887 3 14.78125 3 L 9.21875 3 z M 9.21875 5 L 14.78125 5 C 14.91763 5 15 5.0823704 15 5.21875 L 15 7 L 9 7 L 9 5.21875 C 9 5.0823704 9.0823704 5 9.21875 5 z M 12 12 C 12.552 12 13 12.448 13 13 C 13 13.552 12.552 14 12 14 C 11.448 14 11 13.552 11 13 C 11 12.448 11.448 12 12 12 z M 0 16.15625 L 0 23.15625 C 0 23.61725 0.38275 24 0.84375 24 L 23.15625 24 C 23.61725 24 24 23.61725 24 23.15625 L 24 16.15625 C 24 16.61725 23.61725 17 23.15625 17 L 0.84375 17 C 0.38275 17 -7.4014868e-17 16.61725 0 16.15625 z" overflow="visible" enable-background="accumulate" font-family="Bitstream Vera Sans"/>
</svg>
